<svg width="924" height="310" viewBox="0 0 924 310" fill="none" xmlns="http://www.w3.org/2000/svg">
<path d="M850.03 0.72239H74.0112C71.1825 0.72239 68.3877 0.72239 65.566 0.737818C63.2047 0.753246 60.862 0.797986 58.4777 0.835784C53.2979 0.896714 48.1303 1.35238 43.0198 2.19883C37.9164 3.06371 32.9729 4.6943 28.3564 7.03545C23.7458 9.3965 19.5329 12.4644 15.8707 16.1278C12.1892 19.7807 9.12039 24.0029 6.7822 28.6321C4.4375 33.2525 2.81172 38.2037 1.96101 43.3147C1.10215 48.419 0.63999 53.5822 0.578677 58.7579C0.506938 61.123 0.499224 63.4958 0.461426 65.8616V244.162C0.499224 246.557 0.506938 248.878 0.578677 251.275C0.640048 256.45 1.10221 261.612 1.96101 266.716C2.80943 271.83 4.43531 276.784 6.7822 281.406C9.11927 286.02 12.1885 290.226 15.8707 293.858C19.5191 297.538 23.7346 300.608 28.3564 302.951C32.9728 305.298 37.9158 306.938 43.0198 307.817C48.1312 308.656 53.2982 309.112 58.4777 309.18C60.8613 309.233 63.2047 309.263 65.5667 309.263C68.3877 309.278 71.1825 309.278 74.0112 309.278H850.029C852.803 309.278 855.62 309.278 858.391 309.263C860.743 309.263 863.153 309.233 865.504 309.18C870.673 309.116 875.831 308.66 880.931 307.817C886.052 306.932 891.012 305.292 895.651 302.951C900.269 300.606 904.481 297.537 908.126 293.858C911.799 290.211 914.875 286.009 917.241 281.406C919.57 276.78 921.18 271.827 922.016 266.716C922.876 261.611 923.355 256.45 923.448 251.274C923.479 248.878 923.479 246.557 923.479 244.162C923.541 241.36 923.541 238.573 923.541 235.725V74.2837C923.541 71.4581 923.541 68.6564 923.479 65.8616C923.479 63.4958 923.479 61.123 923.448 58.7571C923.355 53.581 922.877 48.4189 922.016 43.3139C921.178 38.2064 919.568 33.2561 917.241 28.6328C912.479 19.3533 904.929 11.7998 895.651 7.03467C891.012 4.69927 886.051 3.06911 880.931 2.19806C875.831 1.34801 870.674 0.892313 865.504 0.835013C863.153 0.797215 860.743 0.751703 858.391 0.737046C855.62 0.721619 852.803 0.721619 850.029 0.721619L850.03 0.72239Z" fill="#A6A6A6"/>
<path d="M65.6039 302.529C63.2535 302.529 60.9601 302.499 58.6282 302.446C53.7978 302.383 48.9786 301.963 44.2102 301.189C39.7639 300.423 35.4566 298.998 31.4306 296.962C27.4412 294.942 23.8027 292.294 20.6542 289.12C17.46 285.982 14.8006 282.343 12.7814 278.347C10.7403 274.325 9.32764 270.014 8.59279 265.564C7.79947 260.782 7.37038 255.947 7.3092 251.1C7.25983 249.473 7.1958 244.057 7.1958 244.057V65.8609C7.1958 65.8609 7.26368 60.5275 7.3092 58.96C7.36797 54.1211 7.79475 49.2937 8.58585 44.5196C9.32215 40.0572 10.736 35.7336 12.7783 31.6983C14.7897 27.7048 17.434 24.0631 20.6087 20.9143C23.7801 17.7356 27.4304 15.0741 31.4267 13.0268C35.4436 10.9973 39.7428 9.58295 44.1801 8.83123C48.9642 8.0492 53.8002 7.62658 58.6475 7.56692L65.6078 7.47127H858.355L865.398 7.56923C870.202 7.6263 874.994 8.04558 879.734 8.82351C884.217 9.58488 888.561 11.0093 892.623 13.05C900.629 17.1756 907.143 23.7029 911.253 31.7168C913.262 35.7244 914.654 40.013 915.381 44.437C916.182 49.2502 916.63 54.1155 916.722 58.9939C916.745 61.1785 916.745 63.5251 916.745 65.8609C916.807 68.7536 916.807 71.5067 916.807 74.2829V235.724C916.807 238.526 916.807 241.261 916.745 244.018C916.745 246.527 916.745 248.825 916.714 251.19C916.624 255.981 916.183 260.76 915.395 265.487C914.675 269.97 913.27 274.314 911.229 278.37C909.196 282.322 906.553 285.93 903.396 289.059C900.245 292.251 896.6 294.914 892.601 296.946C888.55 298.998 884.212 300.428 879.734 301.187C874.966 301.966 870.146 302.387 865.316 302.445C863.008 302.499 860.701 302.527 858.393 302.528L850.031 302.543L65.6039 302.529Z" fill="black"/>
<path d="M191.526 157.32C191.609 150.882 193.32 144.569 196.498 138.969C199.676 133.369 204.219 128.664 209.704 125.292C206.22 120.315 201.623 116.22 196.278 113.33C190.934 110.441 184.99 108.838 178.917 108.648C165.963 107.288 153.406 116.399 146.804 116.399C140.076 116.399 129.913 108.783 118.969 109.008C111.891 109.236 104.992 111.295 98.9447 114.982C92.8979 118.67 87.9093 123.861 84.4652 130.05C69.5465 155.88 80.6746 193.84 94.9661 214.718C102.116 224.942 110.472 236.362 121.406 235.957C132.105 235.513 136.101 229.134 149.017 229.134C161.813 229.134 165.562 235.957 176.718 235.699C188.199 235.513 195.433 225.431 202.332 215.11C207.469 207.826 211.422 199.774 214.045 191.255C207.375 188.434 201.682 183.711 197.678 177.677C193.674 171.642 191.534 164.562 191.526 157.32ZM170.455 94.9161C176.715 87.4011 179.799 77.742 179.052 67.9899C169.488 68.9944 160.654 73.5653 154.309 80.7919C151.207 84.3223 148.831 88.4295 147.317 92.8786C145.804 97.3278 145.182 102.032 145.487 106.721C150.271 106.771 155.003 105.734 159.328 103.689C163.653 101.644 167.458 98.6445 170.455 94.9161V94.9161ZM326.777 210.075H290.264L281.496 235.966H266.03L300.615 140.175H316.683L351.267 235.966H335.538L326.777 210.075ZM294.046 198.127H322.988L308.721 156.108H308.321L294.046 198.127ZM425.958 201.051C425.958 222.753 414.342 236.697 396.813 236.697C392.372 236.929 387.956 235.906 384.069 233.745C380.183 231.584 376.984 228.373 374.838 224.478H374.506V259.07H360.171V166.127H374.047V177.743H374.311C376.556 173.867 379.809 170.672 383.724 168.498C387.64 166.324 392.072 165.252 396.549 165.396C414.274 165.396 425.958 179.408 425.958 201.05V201.051ZM411.223 201.051C411.223 186.911 403.916 177.615 392.767 177.615C381.814 177.615 374.447 187.106 374.447 201.05C374.447 215.123 381.814 224.547 392.767 224.547C403.916 224.547 411.223 215.318 411.223 201.05V201.051ZM502.825 201.051C502.825 222.753 491.21 236.697 473.68 236.697C469.24 236.929 464.823 235.906 460.937 233.745C457.051 231.584 453.852 228.373 451.706 224.478H451.375V259.07H437.039V166.127H450.915V177.743H451.179C453.423 173.867 456.676 170.672 460.592 168.498C464.508 166.324 468.94 165.252 473.416 165.396C491.142 165.396 502.825 179.408 502.825 201.05V201.051ZM488.091 201.051C488.091 186.911 480.784 177.615 469.635 177.615C458.681 177.615 451.314 187.106 451.314 201.05C451.314 215.123 458.681 224.547 469.635 224.547C480.784 224.547 488.091 215.318 488.091 201.05V201.051ZM553.629 209.277C554.691 218.776 563.92 225.013 576.529 225.013C588.613 225.013 597.306 218.776 597.306 210.21C597.306 202.775 592.063 198.323 579.649 195.272L567.233 192.282C549.644 188.033 541.478 179.807 541.478 166.458C541.478 149.93 555.882 138.578 576.334 138.578C596.575 138.578 610.451 149.93 610.918 166.458H596.447C595.581 156.899 587.678 151.128 576.13 151.128C564.582 151.128 556.68 156.967 556.68 165.464C556.68 172.236 561.727 176.221 574.073 179.271L584.628 181.863C604.281 186.511 612.448 194.406 612.448 208.417C612.448 226.339 598.172 237.563 575.467 237.563C554.223 237.563 539.881 226.602 538.954 209.276L553.629 209.277ZM643.386 149.6V166.127H656.667V177.479H643.386V215.981C643.386 221.962 646.045 224.749 651.884 224.749C653.46 224.722 655.034 224.611 656.599 224.418V235.703C653.974 236.193 651.306 236.415 648.637 236.365C634.497 236.365 628.982 231.055 628.982 217.51V177.479H618.828V166.127H628.982V149.6H643.386ZM664.358 201.051C664.358 179.076 677.3 165.268 697.482 165.268C717.731 165.268 730.612 179.076 730.612 201.051C730.612 223.085 717.798 236.833 697.481 236.833C677.172 236.833 664.358 223.085 664.358 201.051ZM716.005 201.051C716.005 185.977 709.098 177.08 697.481 177.08C685.866 177.08 678.965 186.044 678.965 201.051C678.965 216.185 685.866 225.013 697.481 225.013C709.098 225.013 716.005 216.185 716.005 201.051ZM742.431 166.127H756.104V178.014H756.435C757.361 174.301 759.536 171.02 762.595 168.723C765.654 166.425 769.411 165.25 773.235 165.396C774.887 165.391 776.534 165.57 778.146 165.931V179.34C776.061 178.703 773.885 178.41 771.705 178.474C769.623 178.389 767.546 178.756 765.619 179.55C763.692 180.344 761.959 181.545 760.54 183.072C759.121 184.598 758.049 186.414 757.397 188.394C756.746 190.374 756.531 192.471 756.767 194.542V235.966H742.431V166.127ZM844.241 215.453C842.313 228.132 829.966 236.833 814.169 236.833C793.852 236.833 781.242 223.221 781.242 201.382C781.242 179.476 793.92 165.268 813.566 165.268C832.889 165.268 845.04 178.542 845.04 199.717V204.629H795.713V205.495C795.485 208.065 795.807 210.654 796.657 213.091C797.507 215.527 798.865 217.755 800.642 219.626C802.419 221.497 804.574 222.968 806.963 223.943C809.352 224.917 811.922 225.372 814.5 225.277C817.888 225.595 821.288 224.81 824.194 223.04C827.1 221.27 829.357 218.609 830.629 215.453H844.241ZM795.781 194.61H830.696C830.825 192.299 830.475 189.986 829.667 187.817C828.86 185.647 827.613 183.668 826.004 182.004C824.396 180.34 822.461 179.026 820.32 178.144C818.18 177.263 815.88 176.834 813.566 176.884C811.232 176.87 808.918 177.319 806.757 178.204C804.597 179.089 802.634 180.393 800.98 182.041C799.327 183.689 798.016 185.648 797.124 187.805C796.231 189.963 795.775 192.275 795.781 194.61V194.61ZM292.249 68.0725C295.255 67.8567 298.271 68.3108 301.079 69.4018C303.888 70.4928 306.42 72.1936 308.492 74.3815C310.563 76.5694 312.124 79.1899 313.06 82.0539C313.997 84.918 314.286 87.9541 313.907 90.9434C313.907 105.648 305.959 114.101 292.249 114.101H275.623V68.0717L292.249 68.0725ZM282.773 107.591H291.451C293.598 107.719 295.747 107.367 297.742 106.56C299.736 105.753 301.525 104.511 302.979 102.926C304.433 101.34 305.515 99.4499 306.147 97.3933C306.778 95.3367 306.943 93.1651 306.629 91.0367C306.92 88.9167 306.739 86.7586 306.097 84.7171C305.456 82.6755 304.372 80.8011 302.921 79.228C301.47 77.6549 299.69 76.4221 297.707 75.618C295.724 74.8139 293.587 74.4583 291.451 74.5768H282.773V107.591ZM321.982 96.7173C321.764 94.4346 322.025 92.1314 322.749 89.9556C323.473 87.7797 324.643 85.7791 326.186 84.0822C327.728 82.3852 329.608 81.0294 331.705 80.1016C333.802 79.1738 336.07 78.6945 338.363 78.6945C340.656 78.6945 342.924 79.1738 345.021 80.1016C347.118 81.0294 348.998 82.3852 350.54 84.0822C352.082 85.7791 353.253 87.7797 353.977 89.9556C354.701 92.1314 354.962 94.4346 354.743 96.7173C354.966 99.0026 354.709 101.309 353.987 103.489C353.266 105.669 352.096 107.674 350.553 109.375C349.01 111.075 347.129 112.434 345.029 113.365C342.93 114.295 340.659 114.775 338.363 114.775C336.067 114.775 333.796 114.295 331.696 113.365C329.597 112.434 327.715 111.075 326.173 109.375C324.63 107.674 323.46 105.669 322.738 103.489C322.017 101.309 321.759 99.0026 321.982 96.7173ZM347.693 96.7173C347.693 89.1877 344.31 84.7846 338.374 84.7846C332.415 84.7846 329.064 89.1877 329.064 96.7173C329.064 104.307 332.416 108.676 338.374 108.676C344.31 108.676 347.693 104.277 347.693 96.7173V96.7173ZM398.293 114.1H391.181L384.002 88.5174H383.46L376.311 114.1H369.268L359.693 79.3641H366.646L372.869 105.869H373.381L380.522 79.3641H387.098L394.24 105.869H394.782L400.974 79.3641H407.83L398.293 114.1ZM415.882 79.3648H422.481V84.8826H422.994C423.863 82.9006 425.328 81.2391 427.186 80.1297C429.045 79.0203 431.203 78.5183 433.36 78.6937C435.05 78.5667 436.747 78.8216 438.325 79.4394C439.903 80.0573 441.322 81.0223 442.477 82.2631C443.631 83.5038 444.492 84.9884 444.995 86.6069C445.498 88.2254 445.63 89.9363 445.382 91.613V114.099H438.527V93.3347C438.527 87.7529 436.101 84.9767 431.031 84.9767C429.884 84.9233 428.739 85.1187 427.674 85.5494C426.609 85.9801 425.65 86.6359 424.862 87.472C424.074 88.308 423.476 89.3045 423.11 90.3931C422.743 91.4817 422.616 92.6368 422.737 93.779V114.1H415.882V79.3648ZM456.305 65.8046H463.16V114.1H456.305V65.8046ZM472.69 96.7173C472.471 94.4343 472.732 92.1308 473.456 89.9547C474.18 87.7785 475.351 85.7777 476.893 84.0805C478.436 82.3833 480.316 81.0273 482.414 80.0993C484.511 79.1714 486.779 78.6921 489.072 78.6921C491.366 78.6921 493.634 79.1714 495.731 80.0993C497.829 81.0273 499.709 82.3833 501.251 84.0805C502.794 85.7777 503.965 87.7785 504.689 89.9547C505.413 92.1308 505.674 94.4343 505.455 96.7173C505.677 99.0023 505.419 101.308 504.696 103.488C503.974 105.667 502.804 107.671 501.261 109.371C499.718 111.071 497.837 112.429 495.738 113.359C493.639 114.289 491.368 114.769 489.072 114.769C486.777 114.769 484.506 114.289 482.407 113.359C480.308 112.429 478.427 111.071 476.884 109.371C475.341 107.671 474.171 105.667 473.448 103.488C472.726 101.308 472.468 99.0023 472.69 96.7173V96.7173ZM498.4 96.7173C498.4 89.1877 495.017 84.7846 489.082 84.7846C483.123 84.7846 479.771 89.1877 479.771 96.7173C479.771 104.307 483.123 108.676 489.082 108.676C495.017 108.676 498.4 104.277 498.4 96.7173ZM512.672 104.277C512.672 98.024 517.327 94.4193 525.591 93.9071L534.999 93.3648V90.3664C534.999 86.6977 532.574 84.6265 527.889 84.6265C524.062 84.6265 521.41 86.0312 520.649 88.4873H514.012C514.713 82.5206 520.325 78.6945 528.205 78.6945C536.913 78.6945 541.825 83.0297 541.825 90.3664V114.1H535.225V109.218H534.683C533.582 110.969 532.036 112.397 530.203 113.355C528.371 114.313 526.316 114.768 524.25 114.672C522.792 114.824 521.318 114.668 519.924 114.215C518.529 113.763 517.245 113.023 516.155 112.043C515.064 111.064 514.19 109.867 513.59 108.529C512.99 107.191 512.677 105.743 512.672 104.277V104.277ZM534.999 101.309V98.4043L526.517 98.9466C521.734 99.2667 519.564 100.894 519.564 103.956C519.564 107.082 522.276 108.902 526.005 108.902C527.098 109.013 528.201 108.902 529.251 108.578C530.3 108.253 531.273 107.721 532.112 107.012C532.951 106.304 533.639 105.434 534.135 104.454C534.631 103.474 534.925 102.404 534.999 101.309V101.309ZM550.834 96.7173C550.834 85.7411 556.476 78.7886 565.253 78.7886C567.423 78.6885 569.578 79.2084 571.464 80.2876C573.351 81.3667 574.891 82.9605 575.905 84.8826H576.417V65.8038H583.271V114.099H576.703V108.611H576.161C575.069 110.52 573.475 112.094 571.552 113.162C569.63 114.23 567.451 114.752 565.253 114.671C556.416 114.671 550.834 107.718 550.834 96.7165V96.7173ZM557.916 96.7173C557.916 104.084 561.389 108.518 567.196 108.518C572.973 108.518 576.545 104.021 576.545 96.7466C576.545 89.5078 572.936 84.9466 567.196 84.9466C561.426 84.9466 557.916 89.4099 557.916 96.7173ZM611.634 96.7173C611.416 94.4346 611.677 92.1314 612.4 89.9556C613.124 87.7797 614.295 85.7791 615.837 84.0822C617.379 82.3852 619.259 81.0294 621.356 80.1016C623.454 79.1738 625.721 78.6945 628.014 78.6945C630.307 78.6945 632.575 79.1738 634.672 80.1016C636.769 81.0294 638.649 82.3852 640.192 84.0822C641.734 85.7791 642.905 87.7797 643.628 89.9556C644.352 92.1314 644.613 94.4346 644.395 96.7173C644.618 99.0026 644.36 101.309 643.639 103.489C642.917 105.669 641.747 107.674 640.205 109.375C638.662 111.075 636.78 112.434 634.681 113.365C632.581 114.295 630.311 114.775 628.014 114.775C625.718 114.775 623.447 114.295 621.348 113.365C619.248 112.434 617.367 111.075 615.824 109.375C614.281 107.674 613.112 105.669 612.39 103.489C611.668 101.309 611.411 99.0026 611.634 96.7173V96.7173ZM637.344 96.7173C637.344 89.1877 633.962 84.7846 628.026 84.7846C622.067 84.7846 618.715 89.1877 618.715 96.7173C618.715 104.307 622.068 108.676 628.026 108.676C633.962 108.676 637.344 104.277 637.344 96.7173ZM653.593 79.3648H660.192V84.8826H660.704C661.573 82.9006 663.039 81.2391 664.897 80.1297C666.755 79.0203 668.913 78.5183 671.07 78.6937C672.76 78.5667 674.457 78.8216 676.036 79.4394C677.614 80.0573 679.033 81.0223 680.187 82.2631C681.342 83.5038 682.203 84.9884 682.706 86.6069C683.209 88.2254 683.341 89.9363 683.093 91.613V114.099H676.238V93.3347C676.238 87.7529 673.812 84.9767 668.742 84.9767C667.595 84.9233 666.449 85.1187 665.384 85.5494C664.32 85.9801 663.36 86.6359 662.573 87.472C661.785 88.308 661.187 89.3045 660.82 90.3931C660.454 91.4817 660.327 92.6368 660.448 93.779V114.1H653.594L653.593 79.3648ZM721.829 70.7168V79.523H729.354V85.2968H721.829V103.158C721.829 106.796 723.327 108.39 726.74 108.39C727.613 108.387 728.486 108.334 729.353 108.231V113.942C728.122 114.162 726.875 114.279 725.625 114.292C718.002 114.292 714.965 111.61 714.965 104.913V85.2968H709.452V79.5222H714.965V70.7176L721.829 70.7168ZM738.717 65.8046H745.513V84.9466H746.055C746.966 82.9462 748.472 81.2753 750.367 80.1617C752.262 79.0482 754.455 78.5461 756.646 78.7238C758.327 78.6323 760.008 78.913 761.569 79.5459C763.129 80.1788 764.531 81.1483 765.673 82.3852C766.816 83.6221 767.671 85.096 768.179 86.7016C768.686 88.3072 768.833 90.005 768.609 91.6739V114.1H761.746V93.3648C761.746 87.8162 759.162 85.0068 754.319 85.0068C753.14 84.9102 751.955 85.0722 750.846 85.4815C749.737 85.8908 748.731 86.5374 747.898 87.3762C747.065 88.215 746.425 89.2256 746.024 90.3375C745.622 91.4493 745.468 92.6355 745.573 93.813V114.1H738.717V65.8046ZM808.58 104.72C807.649 107.895 805.631 110.641 802.879 112.478C800.128 114.316 796.818 115.127 793.528 114.77C791.24 114.831 788.966 114.392 786.864 113.486C784.762 112.579 782.882 111.226 781.355 109.52C779.829 107.814 778.692 105.797 778.023 103.607C777.354 101.418 777.17 99.1092 777.483 96.8414C777.178 94.5667 777.365 92.2529 778.032 90.0569C778.7 87.8609 779.831 85.8338 781.349 84.113C782.868 82.3921 784.739 81.0177 786.835 80.0827C788.931 79.1477 791.203 78.674 793.498 78.6937C803.163 78.6937 808.994 85.2968 808.994 96.2043V98.5964H784.466V98.9805C784.359 100.255 784.519 101.538 784.937 102.747C785.354 103.957 786.02 105.065 786.891 106.002C787.761 106.939 788.819 107.683 789.994 108.188C791.17 108.692 792.438 108.946 793.717 108.931C795.356 109.128 797.018 108.833 798.489 108.083C799.961 107.333 801.176 106.163 801.981 104.72H808.58ZM784.466 93.5268H802.011C802.097 92.361 801.939 91.1901 801.545 90.0892C801.152 88.9883 800.533 87.9818 799.728 87.1343C798.923 86.2869 797.949 85.6173 796.87 85.1685C795.791 84.7198 794.629 84.5018 793.461 84.5285C792.275 84.5136 791.098 84.7362 790 85.1831C788.902 85.6301 787.904 86.2924 787.066 87.131C786.228 87.9696 785.566 88.9676 785.119 90.066C784.673 91.1645 784.451 92.3412 784.466 93.5268V93.5268Z" fill="white"/>
</svg>
